<svg height="2431" viewBox="2.81 -.02 4025.17 3911.31" width="2500" xmlns="http://www.w3.org/2000/svg"><path d="m3094.44 597.31c2.59 22 2.19 409.94-.29 426.26-6.61 3.09-14 1.57-21.13 1.46-96.56-1.51-190.85-17.32-282.94-46.11a1016.67 1016.67 0 0 1 -270.47-131.14c-4.93-3.36-10.08-6.37-15.18-9.48-.46-.28-1.23 0-2 0-3.84 1.75-2.72 5.46-2.82 8.52-.21 6.66-.09 13.33-.09 20 0 279.22-.71 558.44.19 837.66 1 310-183 594-467.46 721.69-72.81 32.68-148.9 53.42-228.21 63-395.62 47.68-761.12-208.31-858.85-589-20.67-80.54-27.78-162.44-22.7-245.71 20.41-334.35 256.06-623.48 582-711.63 85.08-23 171.57-30.61 259.34-25.3 14 .85 27.85 2.66 41.74 4.31 3.15.37 6.17 1.94 8.92 2.86 2.81 18.89 3.84 257 1.85 418.27-.06 5.22-.7 10.44-1.17 17-7.41-1.6-13.79-2.79-20.07-4.39a347.09 347.09 0 0 0 -87-10.84c-158.92.59-301.06 108.48-344.37 261.54-57.54 203.32 70.43 413 278.41 452.66 199 38 373.22-90.37 417.19-265.91a369.29 369.29 0 0 0 11-91v-4q.12-576.75.25-1153.52.06-259.89.22-519.78c0-7.23.33-14.47.54-22.78 4.52-.7 8.26-1.71 12-1.77 14.66-.2 29.32-.11 44-.11h345.82c7.89 0 15.78.28 23.38.43 4.65 7.06 3 13.92 3.26 20.34 5.23 109.5 35.54 211.31 96.2 302.89 95.35 144 228.55 232 398.27 263.8 28 5.25 56.9 6 85.38 8.85 4.55.42 9.1.62 14.79.93zm-2049.86 2380.24c24.82-2.49 201.73-1.91 218 .7 2.37 6.57 1.45 13.9 1.46 21q.12 94.93 0 189.87v193.86c0 6.41-.59 12.94 1.22 20.18 8.38-1.91 12-7.85 16.49-12.23q69.32-67.75 138.38-135.75c18.07-17.73 36.3-35.3 54.14-53.25 6-6 12.14-9.2 21-9.16 79.27.3 158.54.17 237.81.22a69.82 69.82 0 0 1 7.22.67c3.17 4.48 0 6.7-2.09 8.94-3.68 3.85-7.6 7.47-11.42 11.19q-119.64 116.21-239.39 232.47c-5.22 5.07-10.35 10.25-15.32 15.17 1.67 8.45 7.14 13.68 11.24 19.57q140.64 201.55 281.45 403c4.52 6.47 8.9 13 14.33 21-3.85 1.19-6.09 2.49-8.34 2.49q-114.9 0-229.81-.14a24.21 24.21 0 0 1 -3.53-.83c-14.55-18.19-27.19-39.28-41-59.48s-27.52-40.89-41.27-61.34-27.51-40.89-41.26-61.34l-41.32-61.36-42-62.42c-4.26 3.33-7.92 5.74-11 8.72-14.91 14.29-29.32 29.11-44.61 43-8.11 7.34-11.05 15.32-11 26.2.42 67.95.21 135.9.21 203.85v22.57c-3.94 1-7 2.55-10 2.55q-100.92.2-201.84 0c-1.94 0-3.87-.59-7-1.1-.71-3.43-1.88-7.1-2.15-10.82-.39-5.31-.13-10.66-.13-16v-875.38c-.05-8.48-1.05-17.17 1.53-26.62zm2677.15 485.11c13.68 22.37 28.89 42.52 43.22 63.26 14.76 21.38 29.75 42.59 44.62 63.89q21.75 31.13 43.46 62.26 22.3 31.95 44.63 63.88 21.75 31.11 43.51 62.23c14.88 21.29 29.85 42.52 44.62 63.89 14.24 20.62 29.06 40.88 42.19 61-1.4 2.5-1.6 3.21-2.06 3.56a3.39 3.39 0 0 1 -1.88.6c-6 .18-12 .4-17.95.41h-218.59c-23.22-34.45-46.29-68.64-69.32-102.86q-34-50.55-68-101.13c-23-34.11-45.68-68.44-68.78-102-2.72.93-4.3 1-5.16 1.84-20.23 19.29-40.39 38.67-61.22 58.66-.14 7.06-.4 14.33-.41 21.6v199.85c0 7.18-.44 14.36-.72 22.54-25 3-48.81 1-72.55 1.38-24.65.38-49.3.25-73.94 0-23.83-.21-47.71 1-72.47-.79-.73-4.78-1.6-8.55-1.81-12.34-.3-5.32-.12-10.66-.12-16v-873.37c0-8.6.19-17.2.29-26.42 4.12-1 7.19-2.42 10.25-2.43q100.92-.17 201.84 0c2 0 3.91.57 7 1.05.72 3.47 1.92 7.15 2.16 10.89.38 6 .13 12 .13 18v395.53c7.85 1.46 10.6-4 14-7.33q55.07-53.74 109.86-107.75c27.57-27.07 55.4-53.88 82.57-81.35 8.53-8.62 17.2-12.69 29.73-12.59 75.27.58 150.54.28 225.82.32 5.11 0 10.21.37 16.45.62-.92 7.37-5.7 10.25-9.22 13.68q-55.88 54.45-111.88 108.65-68.1 66.11-136.2 132.23c-4.7 4.56-9.12 9.4-14.07 14.54zm-1276.9 63.02c2.14-209.22 170.85-379 383.45-376.47 220.58 2.66 380.19 185.4 374.95 388.8-5.23 203-172.5 373.28-386.27 369.47-205.77-3.66-372.8-171.24-372.13-381.8zm563.1 3.63c1.68-98.17-78.48-184.65-183.36-185.11-97-.42-183.46 76.24-184.49 182.16-1.08 111.19 90.28 185.56 182.54 186.15 100.29.64 185.84-81.51 185.31-183.2zm-736.18 375.84c-19.61 3.32-204.89 3.32-222.53.21-.41-3.44-1.14-7.24-1.28-11.06-.23-6-.09-12-.09-18v-673.5c0-7.89-.26-15.78-.38-22.68-6.51-5.27-12.74-3.69-18.52-3.69-60 0-119.9.17-179.85.2-7.84 0-15.81 1-22.37-1a21.93 21.93 0 0 1 -2.31-2.66 4.14 4.14 0 0 1 -.49-1.88q-.36-86.93-.66-173.84c0-4 .14-8 .43-12 .08-1.22.9-2.38 2-5 3-.38 6.75-1.06 10.54-1.29 4-.25 8-.09 12-.09h657.46c7.19 0 14.54-1 22.22 1.54-.27 3.11 0 5.8-.77 8.16-19.81 62.09-39.72 124.15-59.88 187-7.53.25-14.06.65-20.6.66q-74.94.07-149.87 0h-22.55c-1 5-2.09 8.71-2.32 12.47-.35 6-.12 12-.12 18v698.33zm-1820.47.19c-19.6 3.32-204.88 3.32-222.52.2-.42-3.43-1.14-7.23-1.29-11.05-.23-6-.08-12-.08-18v-673.5c0-7.89-.25-15.78-.37-22.68-6.52-5.28-12.74-3.69-18.53-3.69-59.94 0-119.89.16-179.84.2-7.84 0-15.81 1-22.38-1a23.5 23.5 0 0 1 -2.31-2.65 4.26 4.26 0 0 1 -.48-1.88q-.37-86.93-.67-173.84c0-4 .14-8 .43-12 .09-1.22.9-2.38 2-5 3-.39 6.76-1.06 10.54-1.3 4-.25 8-.09 12-.09h657.45c7.2 0 14.54-.95 22.22 1.55-.26 3.11 0 5.79-.76 8.16-19.81 62.09-39.72 124.15-59.88 187-7.53.26-14.07.66-20.6.67q-74.94.07-149.88 0h-22.61c-1 5-2.08 8.7-2.31 12.47-.36 6-.13 12-.13 18v698.33zm283.14-627.7c5.92-4.94 12.14-3.43 17.94-3.51 115.53-1.59 188.08-.53 201.28 2.9.48 1.67 1.47 3.54 1.47 5.4q0 308.54-.16 617.09c0 1.85-1 3.71-1.82 6.77-23.58 3-47.4.9-71.12 1.29-24 .39-47.92.08-71.88.08h-70.3c-6.4-5.19-4.84-10.89-4.88-16-.23-28.62-.24-57.25-.3-85.87l-.78-327.51c-.17-59.91-.57-119.82-.76-179.73-.03-7.18-.96-14.55 1.31-20.91zm109.29-298.64c62.58-1.1 112.35 51.21 112 111.38a111.4 111.4 0 0 1 -112.16 111.43c-61.15-.33-111-49.55-111.14-110.55-.15-65.61 53.44-113.26 111.3-112.26z"/></svg>